<mxfile host="Electron" modified="2023-11-13T16:05:41.074Z" agent="Mozilla/5.0 (Windows NT 10.0; Win64; x64) AppleWebKit/537.36 (KHTML, like Gecko) draw.io/21.6.8 Chrome/114.0.5735.289 Electron/25.5.0 Safari/537.36" etag="8DPJuRdkWXQKVvW07yDj" version="21.6.8" type="device">
  <diagram id="ybqgKvxFUFVFDfuhI_rx" name="Page-1">
    <mxGraphModel dx="1994" dy="1835" grid="0" gridSize="10" guides="1" tooltips="1" connect="1" arrows="1" fold="1" page="0" pageScale="1" pageWidth="850" pageHeight="1100" math="0" shadow="0">
      <root>
        <mxCell id="0" />
        <mxCell id="1" parent="0" />
        <mxCell id="76" style="edgeStyle=none;hachureGap=4;html=1;entryX=0;entryY=0.5;entryDx=0;entryDy=0;fontFamily=Helvetica;fontSize=16;labelBackgroundColor=none;fontColor=default;rounded=0;" parent="1" source="2" target="74" edge="1">
          <mxGeometry relative="1" as="geometry" />
        </mxCell>
        <mxCell id="2" value="Question" style="swimlane;fontStyle=0;childLayout=stackLayout;horizontal=1;startSize=26;fillColor=none;horizontalStack=0;resizeParent=1;resizeParentMax=0;resizeLast=0;collapsible=1;marginBottom=0;hachureGap=4;fontFamily=Helvetica;fontSize=20;labelBackgroundColor=none;rounded=0;" parent="1" vertex="1">
          <mxGeometry x="-208" y="-37" width="140" height="156" as="geometry" />
        </mxCell>
        <mxCell id="14" value="type" style="text;strokeColor=none;fillColor=none;align=left;verticalAlign=top;spacingLeft=4;spacingRight=4;overflow=hidden;rotatable=0;points=[[0,0.5],[1,0.5]];portConstraint=eastwest;hachureGap=4;fontFamily=Helvetica;fontSize=20;labelBackgroundColor=none;rounded=0;" parent="2" vertex="1">
          <mxGeometry y="26" width="140" height="26" as="geometry" />
        </mxCell>
        <mxCell id="4" value="text" style="text;strokeColor=none;fillColor=none;align=left;verticalAlign=top;spacingLeft=4;spacingRight=4;overflow=hidden;rotatable=0;points=[[0,0.5],[1,0.5]];portConstraint=eastwest;hachureGap=4;fontFamily=Helvetica;fontSize=20;labelBackgroundColor=none;rounded=0;" parent="2" vertex="1">
          <mxGeometry y="52" width="140" height="26" as="geometry" />
        </mxCell>
        <mxCell id="6" value="variants" style="text;strokeColor=none;fillColor=none;align=left;verticalAlign=top;spacingLeft=4;spacingRight=4;overflow=hidden;rotatable=0;points=[[0,0.5],[1,0.5]];portConstraint=eastwest;hachureGap=4;fontFamily=Helvetica;fontSize=20;labelBackgroundColor=none;rounded=0;" parent="2" vertex="1">
          <mxGeometry y="78" width="140" height="26" as="geometry" />
        </mxCell>
        <mxCell id="5" value="answer" style="text;strokeColor=none;fillColor=none;align=left;verticalAlign=top;spacingLeft=4;spacingRight=4;overflow=hidden;rotatable=0;points=[[0,0.5],[1,0.5]];portConstraint=eastwest;hachureGap=4;fontFamily=Helvetica;fontSize=20;labelBackgroundColor=none;rounded=0;" parent="2" vertex="1">
          <mxGeometry y="104" width="140" height="26" as="geometry" />
        </mxCell>
        <mxCell id="12" value="test" style="text;strokeColor=none;fillColor=none;align=left;verticalAlign=top;spacingLeft=4;spacingRight=4;overflow=hidden;rotatable=0;points=[[0,0.5],[1,0.5]];portConstraint=eastwest;hachureGap=4;fontFamily=Helvetica;fontSize=20;labelBackgroundColor=none;rounded=0;" parent="2" vertex="1">
          <mxGeometry y="130" width="140" height="26" as="geometry" />
        </mxCell>
        <mxCell id="30" style="edgeStyle=none;hachureGap=4;html=1;fontFamily=Helvetica;fontSize=16;entryX=1;entryY=0.5;entryDx=0;entryDy=0;labelBackgroundColor=none;fontColor=default;rounded=0;" parent="1" source="8" target="12" edge="1">
          <mxGeometry relative="1" as="geometry">
            <mxPoint x="270" y="260" as="targetPoint" />
          </mxGeometry>
        </mxCell>
        <mxCell id="58" style="edgeStyle=none;hachureGap=4;html=1;entryX=1;entryY=0.5;entryDx=0;entryDy=0;fontFamily=Helvetica;fontSize=16;labelBackgroundColor=none;fontColor=default;rounded=0;" parent="1" source="8" target="51" edge="1">
          <mxGeometry relative="1" as="geometry" />
        </mxCell>
        <mxCell id="8" value="Test" style="swimlane;fontStyle=0;childLayout=stackLayout;horizontal=1;startSize=26;fillColor=none;horizontalStack=0;resizeParent=1;resizeParentMax=0;resizeLast=0;collapsible=1;marginBottom=0;hachureGap=4;fontFamily=Helvetica;fontSize=20;labelBackgroundColor=none;rounded=0;" parent="1" vertex="1">
          <mxGeometry x="324" y="-26" width="180" height="208" as="geometry" />
        </mxCell>
        <mxCell id="9" value="theme" style="text;strokeColor=none;fillColor=none;align=left;verticalAlign=top;spacingLeft=4;spacingRight=4;overflow=hidden;rotatable=0;points=[[0,0.5],[1,0.5]];portConstraint=eastwest;hachureGap=4;fontFamily=Helvetica;fontSize=20;labelBackgroundColor=none;rounded=0;" parent="8" vertex="1">
          <mxGeometry y="26" width="180" height="26" as="geometry" />
        </mxCell>
        <mxCell id="10" value="pass" style="text;strokeColor=none;fillColor=none;align=left;verticalAlign=top;spacingLeft=4;spacingRight=4;overflow=hidden;rotatable=0;points=[[0,0.5],[1,0.5]];portConstraint=eastwest;hachureGap=4;fontFamily=Helvetica;fontSize=20;labelBackgroundColor=none;rounded=0;" parent="8" vertex="1">
          <mxGeometry y="52" width="180" height="26" as="geometry" />
        </mxCell>
        <mxCell id="15" value="good" style="text;strokeColor=none;fillColor=none;align=left;verticalAlign=top;spacingLeft=4;spacingRight=4;overflow=hidden;rotatable=0;points=[[0,0.5],[1,0.5]];portConstraint=eastwest;hachureGap=4;fontFamily=Helvetica;fontSize=20;labelBackgroundColor=none;rounded=0;" parent="8" vertex="1">
          <mxGeometry y="78" width="180" height="26" as="geometry" />
        </mxCell>
        <mxCell id="16" value="excellent" style="text;strokeColor=none;fillColor=none;align=left;verticalAlign=top;spacingLeft=4;spacingRight=4;overflow=hidden;rotatable=0;points=[[0,0.5],[1,0.5]];portConstraint=eastwest;hachureGap=4;fontFamily=Helvetica;fontSize=20;labelBackgroundColor=none;rounded=0;" parent="8" vertex="1">
          <mxGeometry y="104" width="180" height="26" as="geometry" />
        </mxCell>
        <mxCell id="17" value="shuffle_variants" style="text;strokeColor=none;fillColor=none;align=left;verticalAlign=top;spacingLeft=4;spacingRight=4;overflow=hidden;rotatable=0;points=[[0,0.5],[1,0.5]];portConstraint=eastwest;hachureGap=4;fontFamily=Helvetica;fontSize=20;labelBackgroundColor=none;rounded=0;" parent="8" vertex="1">
          <mxGeometry y="130" width="180" height="26" as="geometry" />
        </mxCell>
        <mxCell id="18" value="shuffle_questions" style="text;strokeColor=none;fillColor=none;align=left;verticalAlign=top;spacingLeft=4;spacingRight=4;overflow=hidden;rotatable=0;points=[[0,0.5],[1,0.5]];portConstraint=eastwest;hachureGap=4;fontFamily=Helvetica;fontSize=20;labelBackgroundColor=none;rounded=0;" parent="8" vertex="1">
          <mxGeometry y="156" width="180" height="26" as="geometry" />
        </mxCell>
        <mxCell id="11" value="course" style="text;strokeColor=none;fillColor=none;align=left;verticalAlign=top;spacingLeft=4;spacingRight=4;overflow=hidden;rotatable=0;points=[[0,0.5],[1,0.5]];portConstraint=eastwest;hachureGap=4;fontFamily=Helvetica;fontSize=20;labelBackgroundColor=none;rounded=0;" parent="8" vertex="1">
          <mxGeometry y="182" width="180" height="26" as="geometry" />
        </mxCell>
        <mxCell id="31" style="edgeStyle=none;hachureGap=4;html=1;entryX=1;entryY=0.5;entryDx=0;entryDy=0;fontFamily=Helvetica;fontSize=16;labelBackgroundColor=none;fontColor=default;rounded=0;" parent="1" source="23" target="11" edge="1">
          <mxGeometry relative="1" as="geometry" />
        </mxCell>
        <mxCell id="23" value="Course" style="swimlane;fontStyle=0;childLayout=stackLayout;horizontal=1;startSize=26;fillColor=none;horizontalStack=0;resizeParent=1;resizeParentMax=0;resizeLast=0;collapsible=1;marginBottom=0;hachureGap=4;fontFamily=Helvetica;fontSize=20;labelBackgroundColor=none;rounded=0;" parent="1" vertex="1">
          <mxGeometry x="548" y="-61" width="140" height="104" as="geometry" />
        </mxCell>
        <mxCell id="24" value="name" style="text;strokeColor=none;fillColor=none;align=left;verticalAlign=top;spacingLeft=4;spacingRight=4;overflow=hidden;rotatable=0;points=[[0,0.5],[1,0.5]];portConstraint=eastwest;hachureGap=4;fontFamily=Helvetica;fontSize=20;labelBackgroundColor=none;rounded=0;" parent="23" vertex="1">
          <mxGeometry y="26" width="140" height="26" as="geometry" />
        </mxCell>
        <mxCell id="27" value="groups" style="text;strokeColor=none;fillColor=none;align=left;verticalAlign=top;spacingLeft=4;spacingRight=4;overflow=hidden;rotatable=0;points=[[0,0.5],[1,0.5]];portConstraint=eastwest;hachureGap=4;fontFamily=Helvetica;fontSize=20;labelBackgroundColor=none;rounded=0;" parent="23" vertex="1">
          <mxGeometry y="52" width="140" height="26" as="geometry" />
        </mxCell>
        <mxCell id="26" value="teacher" style="text;strokeColor=none;fillColor=none;align=left;verticalAlign=top;spacingLeft=4;spacingRight=4;overflow=hidden;rotatable=0;points=[[0,0.5],[1,0.5]];portConstraint=eastwest;hachureGap=4;fontFamily=Helvetica;fontSize=20;labelBackgroundColor=none;rounded=0;" parent="23" vertex="1">
          <mxGeometry y="78" width="140" height="26" as="geometry" />
        </mxCell>
        <mxCell id="36" style="edgeStyle=none;hachureGap=4;html=1;entryX=1;entryY=0.5;entryDx=0;entryDy=0;fontFamily=Helvetica;fontSize=16;labelBackgroundColor=none;fontColor=default;rounded=0;" parent="1" source="32" target="27" edge="1">
          <mxGeometry relative="1" as="geometry" />
        </mxCell>
        <mxCell id="62" style="edgeStyle=none;hachureGap=4;html=1;entryX=1;entryY=0.5;entryDx=0;entryDy=0;fontFamily=Helvetica;fontSize=16;labelBackgroundColor=none;fontColor=default;rounded=0;" parent="1" source="32" target="61" edge="1">
          <mxGeometry relative="1" as="geometry" />
        </mxCell>
        <mxCell id="32" value="Group" style="swimlane;fontStyle=0;childLayout=stackLayout;horizontal=1;startSize=26;fillColor=none;horizontalStack=0;resizeParent=1;resizeParentMax=0;resizeLast=0;collapsible=1;marginBottom=0;hachureGap=4;fontFamily=Helvetica;fontSize=20;labelBackgroundColor=none;rounded=0;" parent="1" vertex="1">
          <mxGeometry x="734" y="-179" width="140" height="104" as="geometry" />
        </mxCell>
        <mxCell id="33" value="name" style="text;strokeColor=none;fillColor=none;align=left;verticalAlign=top;spacingLeft=4;spacingRight=4;overflow=hidden;rotatable=0;points=[[0,0.5],[1,0.5]];portConstraint=eastwest;hachureGap=4;fontFamily=Helvetica;fontSize=20;labelBackgroundColor=none;rounded=0;" parent="32" vertex="1">
          <mxGeometry y="26" width="140" height="26" as="geometry" />
        </mxCell>
        <mxCell id="34" value="students" style="text;strokeColor=none;fillColor=none;align=left;verticalAlign=top;spacingLeft=4;spacingRight=4;overflow=hidden;rotatable=0;points=[[0,0.5],[1,0.5]];portConstraint=eastwest;hachureGap=4;fontFamily=Helvetica;fontSize=20;labelBackgroundColor=none;rounded=0;" parent="32" vertex="1">
          <mxGeometry y="52" width="140" height="26" as="geometry" />
        </mxCell>
        <mxCell id="35" value="sessions" style="text;strokeColor=none;fillColor=none;align=left;verticalAlign=top;spacingLeft=4;spacingRight=4;overflow=hidden;rotatable=0;points=[[0,0.5],[1,0.5]];portConstraint=eastwest;hachureGap=4;fontFamily=Helvetica;fontSize=20;labelBackgroundColor=none;rounded=0;" parent="32" vertex="1">
          <mxGeometry y="78" width="140" height="26" as="geometry" />
        </mxCell>
        <mxCell id="43" style="edgeStyle=none;hachureGap=4;html=1;entryX=1;entryY=0.5;entryDx=0;entryDy=0;fontFamily=Helvetica;fontSize=16;labelBackgroundColor=none;fontColor=default;rounded=0;" parent="1" source="37" target="34" edge="1">
          <mxGeometry relative="1" as="geometry" />
        </mxCell>
        <mxCell id="69" style="edgeStyle=none;hachureGap=4;html=1;entryX=1;entryY=0.5;entryDx=0;entryDy=0;fontFamily=Helvetica;fontSize=16;labelBackgroundColor=none;fontColor=default;rounded=0;" parent="1" source="37" target="65" edge="1">
          <mxGeometry relative="1" as="geometry" />
        </mxCell>
        <mxCell id="37" value="Student" style="swimlane;fontStyle=0;childLayout=stackLayout;horizontal=1;startSize=26;fillColor=none;horizontalStack=0;resizeParent=1;resizeParentMax=0;resizeLast=0;collapsible=1;marginBottom=0;hachureGap=4;fontFamily=Helvetica;fontSize=20;labelBackgroundColor=none;rounded=0;" parent="1" vertex="1">
          <mxGeometry x="885" y="-333" width="140" height="104" as="geometry" />
        </mxCell>
        <mxCell id="38" value="name" style="text;strokeColor=none;fillColor=none;align=left;verticalAlign=top;spacingLeft=4;spacingRight=4;overflow=hidden;rotatable=0;points=[[0,0.5],[1,0.5]];portConstraint=eastwest;hachureGap=4;fontFamily=Helvetica;fontSize=20;labelBackgroundColor=none;rounded=0;" parent="37" vertex="1">
          <mxGeometry y="26" width="140" height="26" as="geometry" />
        </mxCell>
        <mxCell id="39" value="email" style="text;strokeColor=none;fillColor=none;align=left;verticalAlign=top;spacingLeft=4;spacingRight=4;overflow=hidden;rotatable=0;points=[[0,0.5],[1,0.5]];portConstraint=eastwest;hachureGap=4;fontFamily=Helvetica;fontSize=20;labelBackgroundColor=none;rounded=0;" parent="37" vertex="1">
          <mxGeometry y="52" width="140" height="26" as="geometry" />
        </mxCell>
        <mxCell id="40" value="password" style="text;strokeColor=none;fillColor=none;align=left;verticalAlign=top;spacingLeft=4;spacingRight=4;overflow=hidden;rotatable=0;points=[[0,0.5],[1,0.5]];portConstraint=eastwest;hachureGap=4;fontFamily=Helvetica;fontSize=20;labelBackgroundColor=none;rounded=0;" parent="37" vertex="1">
          <mxGeometry y="78" width="140" height="26" as="geometry" />
        </mxCell>
        <mxCell id="49" style="edgeStyle=none;hachureGap=4;html=1;entryX=1;entryY=0.5;entryDx=0;entryDy=0;fontFamily=Helvetica;fontSize=16;labelBackgroundColor=none;fontColor=default;rounded=0;" parent="1" source="45" target="26" edge="1">
          <mxGeometry relative="1" as="geometry" />
        </mxCell>
        <mxCell id="45" value="Teacher" style="swimlane;fontStyle=0;childLayout=stackLayout;horizontal=1;startSize=26;fillColor=none;horizontalStack=0;resizeParent=1;resizeParentMax=0;resizeLast=0;collapsible=1;marginBottom=0;hachureGap=4;fontFamily=Helvetica;fontSize=20;labelBackgroundColor=none;rounded=0;" parent="1" vertex="1">
          <mxGeometry x="758" y="71" width="140" height="104" as="geometry" />
        </mxCell>
        <mxCell id="46" value="name" style="text;strokeColor=none;fillColor=none;align=left;verticalAlign=top;spacingLeft=4;spacingRight=4;overflow=hidden;rotatable=0;points=[[0,0.5],[1,0.5]];portConstraint=eastwest;hachureGap=4;fontFamily=Helvetica;fontSize=20;labelBackgroundColor=none;rounded=0;" parent="45" vertex="1">
          <mxGeometry y="26" width="140" height="26" as="geometry" />
        </mxCell>
        <mxCell id="47" value="email" style="text;strokeColor=none;fillColor=none;align=left;verticalAlign=top;spacingLeft=4;spacingRight=4;overflow=hidden;rotatable=0;points=[[0,0.5],[1,0.5]];portConstraint=eastwest;hachureGap=4;fontFamily=Helvetica;fontSize=20;labelBackgroundColor=none;rounded=0;" parent="45" vertex="1">
          <mxGeometry y="52" width="140" height="26" as="geometry" />
        </mxCell>
        <mxCell id="48" value="password" style="text;strokeColor=none;fillColor=none;align=left;verticalAlign=top;spacingLeft=4;spacingRight=4;overflow=hidden;rotatable=0;points=[[0,0.5],[1,0.5]];portConstraint=eastwest;hachureGap=4;fontFamily=Helvetica;fontSize=20;labelBackgroundColor=none;rounded=0;" parent="45" vertex="1">
          <mxGeometry y="78" width="140" height="26" as="geometry" />
        </mxCell>
        <mxCell id="70" style="edgeStyle=none;hachureGap=4;html=1;entryX=0;entryY=0.5;entryDx=0;entryDy=0;fontFamily=Helvetica;fontSize=16;labelBackgroundColor=none;fontColor=default;rounded=0;" parent="1" source="50" target="64" edge="1">
          <mxGeometry relative="1" as="geometry" />
        </mxCell>
        <mxCell id="50" value="Session" style="swimlane;fontStyle=0;childLayout=stackLayout;horizontal=1;startSize=26;fillColor=none;horizontalStack=0;resizeParent=1;resizeParentMax=0;resizeLast=0;collapsible=1;marginBottom=0;hachureGap=4;fontFamily=Helvetica;fontSize=20;labelBackgroundColor=none;rounded=0;" parent="1" vertex="1">
          <mxGeometry x="5" y="-205" width="181" height="208" as="geometry" />
        </mxCell>
        <mxCell id="52" value="attempt_count" style="text;strokeColor=none;fillColor=none;align=left;verticalAlign=top;spacingLeft=4;spacingRight=4;overflow=hidden;rotatable=0;points=[[0,0.5],[1,0.5]];portConstraint=eastwest;hachureGap=4;fontFamily=Helvetica;fontSize=20;labelBackgroundColor=none;rounded=0;" parent="50" vertex="1">
          <mxGeometry y="26" width="181" height="26" as="geometry" />
        </mxCell>
        <mxCell id="60" value="start" style="text;strokeColor=none;fillColor=none;align=left;verticalAlign=top;spacingLeft=4;spacingRight=4;overflow=hidden;rotatable=0;points=[[0,0.5],[1,0.5]];portConstraint=eastwest;hachureGap=4;fontFamily=Helvetica;fontSize=20;labelBackgroundColor=none;rounded=0;" parent="50" vertex="1">
          <mxGeometry y="52" width="181" height="26" as="geometry" />
        </mxCell>
        <mxCell id="59" value="finish" style="text;strokeColor=none;fillColor=none;align=left;verticalAlign=top;spacingLeft=4;spacingRight=4;overflow=hidden;rotatable=0;points=[[0,0.5],[1,0.5]];portConstraint=eastwest;hachureGap=4;fontFamily=Helvetica;fontSize=20;labelBackgroundColor=none;rounded=0;" parent="50" vertex="1">
          <mxGeometry y="78" width="181" height="26" as="geometry" />
        </mxCell>
        <mxCell id="87DGkw_g7g6Fv2z1Ql6o-76" value="evalluation_method" style="text;strokeColor=none;fillColor=none;align=left;verticalAlign=top;spacingLeft=4;spacingRight=4;overflow=hidden;rotatable=0;points=[[0,0.5],[1,0.5]];portConstraint=eastwest;hachureGap=4;fontFamily=Helvetica;fontSize=20;labelBackgroundColor=none;rounded=0;" parent="50" vertex="1">
          <mxGeometry y="104" width="181" height="26" as="geometry" />
        </mxCell>
        <mxCell id="67" value="time" style="text;strokeColor=none;fillColor=none;align=left;verticalAlign=top;spacingLeft=4;spacingRight=4;overflow=hidden;rotatable=0;points=[[0,0.5],[1,0.5]];portConstraint=eastwest;hachureGap=4;fontFamily=Helvetica;fontSize=20;labelBackgroundColor=none;rounded=0;" parent="50" vertex="1">
          <mxGeometry y="130" width="181" height="26" as="geometry" />
        </mxCell>
        <mxCell id="61" value="groups" style="text;strokeColor=none;fillColor=none;align=left;verticalAlign=top;spacingLeft=4;spacingRight=4;overflow=hidden;rotatable=0;points=[[0,0.5],[1,0.5]];portConstraint=eastwest;hachureGap=4;fontFamily=Helvetica;fontSize=20;labelBackgroundColor=none;rounded=0;" parent="50" vertex="1">
          <mxGeometry y="156" width="181" height="26" as="geometry" />
        </mxCell>
        <mxCell id="51" value="test" style="text;strokeColor=none;fillColor=none;align=left;verticalAlign=top;spacingLeft=4;spacingRight=4;overflow=hidden;rotatable=0;points=[[0,0.5],[1,0.5]];portConstraint=eastwest;hachureGap=4;fontFamily=Helvetica;fontSize=20;labelBackgroundColor=none;rounded=0;" parent="50" vertex="1">
          <mxGeometry y="182" width="181" height="26" as="geometry" />
        </mxCell>
        <mxCell id="75" style="edgeStyle=none;hachureGap=4;html=1;entryX=1;entryY=0.5;entryDx=0;entryDy=0;fontFamily=Helvetica;fontSize=16;labelBackgroundColor=none;fontColor=default;rounded=0;" parent="1" source="63" target="73" edge="1">
          <mxGeometry relative="1" as="geometry" />
        </mxCell>
        <mxCell id="63" value="Attempt" style="swimlane;fontStyle=0;childLayout=stackLayout;horizontal=1;startSize=26;fillColor=none;horizontalStack=0;resizeParent=1;resizeParentMax=0;resizeLast=0;collapsible=1;marginBottom=0;hachureGap=4;fontFamily=Helvetica;fontSize=20;labelBackgroundColor=none;rounded=0;" parent="1" vertex="1">
          <mxGeometry x="497" y="-415" width="140" height="130" as="geometry" />
        </mxCell>
        <mxCell id="87DGkw_g7g6Fv2z1Ql6o-77" value="variant_dump" style="text;strokeColor=none;fillColor=none;align=left;verticalAlign=top;spacingLeft=4;spacingRight=4;overflow=hidden;rotatable=0;points=[[0,0.5],[1,0.5]];portConstraint=eastwest;hachureGap=4;fontFamily=Helvetica;fontSize=20;labelBackgroundColor=none;rounded=0;" parent="63" vertex="1">
          <mxGeometry y="26" width="140" height="26" as="geometry" />
        </mxCell>
        <mxCell id="66" value="expires_at" style="text;strokeColor=none;fillColor=none;align=left;verticalAlign=top;spacingLeft=4;spacingRight=4;overflow=hidden;rotatable=0;points=[[0,0.5],[1,0.5]];portConstraint=eastwest;hachureGap=4;fontFamily=Helvetica;fontSize=20;labelBackgroundColor=none;rounded=0;" parent="63" vertex="1">
          <mxGeometry y="52" width="140" height="26" as="geometry" />
        </mxCell>
        <mxCell id="64" value="session" style="text;strokeColor=none;fillColor=none;align=left;verticalAlign=top;spacingLeft=4;spacingRight=4;overflow=hidden;rotatable=0;points=[[0,0.5],[1,0.5]];portConstraint=eastwest;hachureGap=4;fontFamily=Helvetica;fontSize=20;labelBackgroundColor=none;rounded=0;" parent="63" vertex="1">
          <mxGeometry y="78" width="140" height="26" as="geometry" />
        </mxCell>
        <mxCell id="65" value="student" style="text;strokeColor=none;fillColor=none;align=left;verticalAlign=top;spacingLeft=4;spacingRight=4;overflow=hidden;rotatable=0;points=[[0,0.5],[1,0.5]];portConstraint=eastwest;hachureGap=4;fontFamily=Helvetica;fontSize=20;labelBackgroundColor=none;rounded=0;" parent="63" vertex="1">
          <mxGeometry y="104" width="140" height="26" as="geometry" />
        </mxCell>
        <mxCell id="71" value="Answer" style="swimlane;fontStyle=0;childLayout=stackLayout;horizontal=1;startSize=26;fillColor=none;horizontalStack=0;resizeParent=1;resizeParentMax=0;resizeLast=0;collapsible=1;marginBottom=0;hachureGap=4;fontFamily=Helvetica;fontSize=20;labelBackgroundColor=none;rounded=0;" parent="1" vertex="1">
          <mxGeometry x="-11" y="-390" width="140" height="104" as="geometry" />
        </mxCell>
        <mxCell id="72" value="answer" style="text;strokeColor=none;fillColor=none;align=left;verticalAlign=top;spacingLeft=4;spacingRight=4;overflow=hidden;rotatable=0;points=[[0,0.5],[1,0.5]];portConstraint=eastwest;hachureGap=4;fontFamily=Helvetica;fontSize=20;labelBackgroundColor=none;rounded=0;" parent="71" vertex="1">
          <mxGeometry y="26" width="140" height="26" as="geometry" />
        </mxCell>
        <mxCell id="73" value="attempt" style="text;strokeColor=none;fillColor=none;align=left;verticalAlign=top;spacingLeft=4;spacingRight=4;overflow=hidden;rotatable=0;points=[[0,0.5],[1,0.5]];portConstraint=eastwest;hachureGap=4;fontFamily=Helvetica;fontSize=20;labelBackgroundColor=none;rounded=0;" parent="71" vertex="1">
          <mxGeometry y="52" width="140" height="26" as="geometry" />
        </mxCell>
        <mxCell id="74" value="question" style="text;strokeColor=none;fillColor=none;align=left;verticalAlign=top;spacingLeft=4;spacingRight=4;overflow=hidden;rotatable=0;points=[[0,0.5],[1,0.5]];portConstraint=eastwest;hachureGap=4;fontFamily=Helvetica;fontSize=20;labelBackgroundColor=none;rounded=0;" parent="71" vertex="1">
          <mxGeometry y="78" width="140" height="26" as="geometry" />
        </mxCell>
        <mxCell id="yyWoXL55UCpIH8ExEczH-77" value="Classname" style="swimlane;fontStyle=0;childLayout=stackLayout;horizontal=1;startSize=26;fillColor=none;horizontalStack=0;resizeParent=1;resizeParentMax=0;resizeLast=0;collapsible=1;marginBottom=0;whiteSpace=wrap;html=1;fontSize=16;" vertex="1" parent="1">
          <mxGeometry x="82" y="361" width="140" height="104" as="geometry" />
        </mxCell>
        <mxCell id="yyWoXL55UCpIH8ExEczH-78" value="+ field: type" style="text;strokeColor=none;fillColor=none;align=left;verticalAlign=top;spacingLeft=4;spacingRight=4;overflow=hidden;rotatable=0;points=[[0,0.5],[1,0.5]];portConstraint=eastwest;whiteSpace=wrap;html=1;fontSize=16;" vertex="1" parent="yyWoXL55UCpIH8ExEczH-77">
          <mxGeometry y="26" width="140" height="26" as="geometry" />
        </mxCell>
        <mxCell id="yyWoXL55UCpIH8ExEczH-79" value="+ field: type" style="text;strokeColor=none;fillColor=none;align=left;verticalAlign=top;spacingLeft=4;spacingRight=4;overflow=hidden;rotatable=0;points=[[0,0.5],[1,0.5]];portConstraint=eastwest;whiteSpace=wrap;html=1;fontSize=16;" vertex="1" parent="yyWoXL55UCpIH8ExEczH-77">
          <mxGeometry y="52" width="140" height="26" as="geometry" />
        </mxCell>
        <mxCell id="yyWoXL55UCpIH8ExEczH-80" value="+ field: type" style="text;strokeColor=none;fillColor=none;align=left;verticalAlign=top;spacingLeft=4;spacingRight=4;overflow=hidden;rotatable=0;points=[[0,0.5],[1,0.5]];portConstraint=eastwest;whiteSpace=wrap;html=1;fontSize=16;" vertex="1" parent="yyWoXL55UCpIH8ExEczH-77">
          <mxGeometry y="78" width="140" height="26" as="geometry" />
        </mxCell>
      </root>
    </mxGraphModel>
  </diagram>
</mxfile>
